<svg width="63" height="26" viewBox="0 0 63 26" fill="none" xmlns="http://www.w3.org/2000/svg">
<path d="M26.1934 0.317777C26.6175 0.349837 26.9319 0.392084 27.0605 0.43396C27.3224 0.517723 27.5174 0.726216 27.5456 0.951718C27.5644 1.09396 27.55 1.13555 27.4067 1.28441C27.3207 1.37788 27.1728 1.49898 27.0821 1.55083C26.7624 1.73402 26.5193 1.75781 24.4128 1.78484C22.5399 1.80886 22.0537 1.83911 21.7914 1.9357C21.6579 1.98399 21.4763 2.22989 21.132 2.81883C20.692 3.5706 20.5053 3.9795 20.5767 4.03167C20.6862 4.11166 23.231 4.14794 31.6186 4.18197C38.8529 4.21024 40.4351 4.20992 40.4971 4.17189C40.5783 4.1235 41.1279 3.34767 41.2809 3.06703C41.3527 2.93191 41.3623 2.89377 41.3099 2.86245C41.2242 2.81026 40.9288 2.77152 39.4947 2.62646C37.989 2.47779 37.3506 2.38981 36.8647 2.27438C36.1168 2.09601 35.917 1.90832 36.2177 1.66959C36.4994 1.45164 37.1809 1.40791 40.5933 1.38002C42.9523 1.3639 44.5392 1.39828 44.8441 1.47866C44.9298 1.50311 45.0107 1.55182 45.0297 1.59001C45.1483 1.86772 45.1135 2.59602 44.9701 2.81424C44.8554 2.99437 44.7362 3.01841 44.2025 2.98614C43.9452 2.96828 43.6306 2.95378 43.5067 2.95354L43.278 2.94961L42.609 3.86047L41.94 4.7748L42.1254 4.98674C42.6484 5.59128 46.0484 9.37861 46.1055 9.42034C46.1578 9.4586 46.2102 9.46217 46.3771 9.42782C48.3318 9.05366 49.3567 8.94124 50.8436 8.94073C52.1017 8.94323 53.2262 9.05646 54.4076 9.30507C55.689 9.57468 57.803 10.5743 59.0403 11.4959C60.3537 12.4731 61.38 14.0013 61.7772 15.5594C61.8434 15.8162 61.9191 16.1042 61.9475 16.2014C62.0137 16.4512 61.9687 17.5229 61.8678 17.9528C61.4399 19.8353 60.355 21.3869 58.551 22.6875C57.7396 23.272 56.7807 23.7696 55.7506 24.1421C55.1306 24.3628 54.7301 24.4765 53.6954 24.7138C52.5845 24.9682 52.3795 24.9852 50.8641 24.9613C48.8435 24.9226 48.2146 24.8381 46.719 24.4016C45.6712 24.0943 45.0379 23.8294 44.2191 23.3457C43.7098 23.0464 42.1156 21.864 41.678 21.4677C40.874 20.7377 40.3086 19.9077 39.9911 19.0018C39.8584 18.62 39.726 18.0925 39.7263 17.9434C39.7266 17.7873 39.6313 17.7594 38.9499 17.7303C37.954 17.6832 32.5401 17.6794 32.5067 17.7244C32.4637 17.7694 32.458 20.6343 32.4959 20.728C32.5244 20.7905 32.5816 20.801 33.1391 20.8195C33.4774 20.834 33.8396 20.8659 33.9396 20.887C34.1111 20.9289 34.1206 20.9393 34.1346 21.0954C34.1626 21.4042 33.9813 21.4975 33.3331 21.5274C32.9041 21.5474 31.7034 21.4548 31.5653 21.3921C31.5081 21.3677 31.4945 21.0451 31.4785 19.512C31.4667 18.2495 31.4441 17.646 31.406 17.6112C31.3775 17.5834 30.9684 17.2115 30.4974 16.7805C30.0312 16.3494 28.1808 14.6462 26.3921 12.9917C22.7483 9.62359 20.7694 7.81608 19.9511 7.1069C19.3231 6.56804 19.2564 6.54363 19.051 6.75826C18.8075 7.01791 18.1094 8.16456 17.8031 8.81254C17.626 9.19372 17.5107 9.64091 17.5629 9.76241C17.6103 9.88043 17.7293 9.95697 18.0341 10.0686C18.4818 10.2325 18.9816 10.5248 19.6573 11.0187C20.295 11.4847 20.9801 12.0653 21.4462 12.5379C22.5164 13.6222 23.3605 15.7188 23.272 17.0574C23.1738 18.5278 22.0209 20.7106 20.6649 21.9947C20.1301 22.5 18.9277 23.2468 17.9117 23.7096C16.5474 24.3277 14.85 24.7544 13.1674 24.8967C12.2761 24.9747 11.89 24.9739 11.0467 24.8925C9.56958 24.7508 8.52632 24.5337 7.38336 24.1291C6.21182 23.714 5.35483 23.2892 4.57436 22.7327C2.78499 21.4597 1.51575 19.8478 1.21824 18.4737C1.03406 17.6305 0.955119 16.5864 1.02764 16.0663C1.18218 15.0434 1.25414 14.8042 1.61288 14.1459C3.14344 11.3639 6.34993 9.38979 10.111 8.9221C10.9929 8.81287 11.6268 8.80025 13.5711 8.85615C14.5956 8.88594 15.4582 8.90499 15.4963 8.89466C15.5297 8.88433 16.051 7.98358 16.6536 6.89223C18.9638 2.71393 20.0206 0.908996 20.374 0.552453C20.5172 0.407065 20.727 0.355457 21.4086 0.301319C22.1999 0.240462 25.269 0.250038 26.1934 0.317777ZM22.6226 5.73179C21.9363 5.77204 21.6645 5.81659 21.6263 5.88588C21.6119 5.9136 21.6736 6.02818 21.7687 6.14283C22.0967 6.54928 23.9566 8.34962 25.3266 9.59057C25.6977 9.92427 26.3874 10.5638 26.8631 11.0087C27.8763 11.9576 31.3824 15.0827 31.4349 15.0828C31.5445 15.083 31.5865 13.1408 31.477 13.0816C31.4484 13.0607 31.2245 13.036 30.991 13.0252C30.4668 12.9998 30.1477 12.9229 29.9907 12.7838C29.8622 12.6726 29.8481 12.6032 29.9198 12.4646C30.0251 12.2602 30.5828 12.185 31.7027 12.2254L32.4604 12.2477L32.4253 13.1043C32.4101 13.5725 32.3802 14.2176 32.3653 14.5366C32.3357 15.0222 32.345 15.1193 32.3975 15.1194C32.4833 15.1196 39.0499 5.80957 39.0119 5.74012C38.9929 5.69847 37.8491 5.69272 31.1104 5.69318C26.0921 5.6936 23.0134 5.70829 22.6226 5.73179ZM41.1021 6.70156C41.0067 6.74646 40.6103 7.15841 40.2998 7.53585C39.9989 7.89944 36.5062 12.3771 35.5315 13.6516C34.9724 14.3788 34.0884 15.591 33.9832 15.7746C33.8445 16.0206 33.6062 16.0028 36.785 15.9848C39.0392 15.972 39.6635 15.9593 39.7065 15.9247C39.7351 15.9005 39.8309 15.6857 39.9171 15.45C40.1328 14.8365 40.3433 14.4415 40.8308 13.7315C41.5477 12.682 42.4694 11.7335 43.8537 10.6229C44.121 10.4118 44.226 10.301 44.2071 10.2559C44.1644 10.1379 41.2642 6.67414 41.2118 6.67403C41.1784 6.67397 41.1307 6.68775 41.1021 6.70156ZM11.29 10.3777C9.98886 10.4375 9.40729 10.5127 8.72064 10.709C7.32825 11.1086 5.75367 12.0593 4.57426 13.205C4.24002 13.5269 3.98681 13.842 3.64741 14.3616C3.12159 15.1617 3.02083 15.5049 2.93259 16.736C2.88361 17.4018 2.88805 17.5649 2.95414 17.8841C3.17121 18.9632 4.03154 20.1025 5.56837 21.3577C6.8578 22.4043 8.94364 23.1784 11.0211 23.3837C15.1617 23.7943 19.3546 21.8638 20.7091 18.9218C21.0107 18.2599 21.0972 17.9063 21.1272 17.178C21.1524 16.4809 21.1101 16.1791 20.8781 15.4156C20.452 14.0204 19.7913 13.1693 18.3065 12.1051C17.3785 11.4408 17.1214 11.3084 16.764 11.3077C16.4685 11.3071 16.2251 11.5009 15.9716 11.9513C15.8616 12.1383 15.4073 12.9317 14.9625 13.7147C14.513 14.4942 13.9965 15.4088 13.8052 15.7414C13.1261 16.9366 12.6722 17.4768 12.2574 17.5766C12.1001 17.6109 12.0572 17.6074 11.8572 17.5342C11.5762 17.433 11.4478 17.2906 11.3721 17.0095C11.2634 16.5757 11.4646 16.0385 12.1626 14.9231C12.6933 14.0709 14.162 11.2505 14.3394 10.7376C14.4064 10.5539 14.3732 10.5052 14.1351 10.4146C13.797 10.2856 13.3776 10.2778 11.29 10.3777ZM49.3436 10.7309C48.7477 10.7887 48.0899 10.8914 47.5702 11.0049C47.265 11.0736 47.1744 11.1081 47.1743 11.1567C47.1741 11.2434 47.8968 12.0946 49.5136 13.891C51.5488 16.1564 51.9196 16.6115 52.1189 17.0732C52.2565 17.3856 52.2182 17.4549 51.8081 17.6033L51.5219 17.7067L46.6942 17.7075L41.8713 17.7083L41.8711 17.8367C41.8707 18.017 41.9841 18.4994 42.1073 18.8499C42.3253 19.4747 42.7482 20.1345 43.2571 20.6384C43.6043 20.9825 44.3848 21.5355 44.9132 21.8106C46.708 22.7437 49.6521 23.3045 51.859 23.132C55.5816 22.8411 58.5687 20.9707 59.4364 18.3815C59.6186 17.8269 59.6958 17.3554 59.6971 16.7102C59.6984 16.0512 59.6514 15.7321 59.4856 15.2427C58.7227 13.0179 56.124 11.3132 52.7414 10.807C51.6551 10.6453 50.4733 10.6187 49.3436 10.7309ZM44.4412 12.3409C43.3912 13.1019 42.9232 13.5796 42.5119 14.3071C42.2058 14.8545 41.9084 15.8528 42.0226 15.9571C42.0559 15.9849 42.7087 16.0036 44.1527 16.0238C45.2964 16.0364 46.8214 16.0603 47.5315 16.0721C48.6847 16.0952 48.8325 16.092 48.8612 16.0435C48.8947 15.9777 45.3239 11.8155 45.2334 11.8153C45.2 11.8152 44.8421 12.0538 44.4412 12.3409Z" fill="#02230B" fill-opacity="0.97"/>
</svg>
