<svg width="61" height="61" viewBox="0 0 61 61" fill="none" xmlns="http://www.w3.org/2000/svg">
<path d="M35.3693 0.850411C34.9519 0.926188 34.6424 1.02722 34.5158 1.12826C34.2579 1.33033 34.0657 1.83552 34.0375 2.3828C34.0188 2.728 34.0328 2.82904 34.1735 3.19109C34.2579 3.41842 34.4033 3.71311 34.4924 3.8394C34.8066 4.28565 35.0457 4.34458 37.1184 4.42036C38.9613 4.48772 39.4396 4.5635 39.6975 4.79925C39.8288 4.91712 40.007 5.51492 40.3446 6.94627C40.776 8.77334 40.9589 9.76687 40.8885 9.89316C40.7807 10.0868 38.2766 10.1626 30.0235 10.2047C22.9052 10.2384 21.3483 10.23 21.2874 10.1373C21.2077 10.0195 20.6684 8.13345 20.5183 7.45145C20.448 7.12308 20.4386 7.03047 20.4902 6.95469C20.5746 6.8284 20.8653 6.73578 22.2768 6.39057C23.7586 6.03694 24.387 5.82645 24.8653 5.5486C25.6015 5.1192 25.7985 4.66453 25.503 4.08357C25.2264 3.55313 24.5558 3.44368 21.1983 3.35948C18.8771 3.30896 17.3156 3.38474 17.0154 3.57839C16.931 3.63733 16.8513 3.75521 16.8326 3.84782C16.7153 4.5214 16.7482 6.28953 16.8888 6.81998C17.0014 7.2578 17.1186 7.31674 17.6438 7.24096C17.897 7.19886 18.2065 7.16518 18.3284 7.16518L18.5535 7.15676L19.21 9.37114L19.8665 11.5939L19.6836 12.1075C19.1678 13.5726 15.815 22.75 15.7587 22.8511C15.7071 22.9437 15.6556 22.9521 15.4914 22.8679C13.5688 21.9502 12.5606 21.6723 11.0976 21.6639C9.85961 21.6639 8.75294 21.9333 7.59 22.5311C6.32858 23.1794 4.24655 25.5959 3.02733 27.8271C1.73309 30.1931 0.72021 33.8977 0.32631 37.6782C0.260661 38.3012 0.185632 39.0001 0.157496 39.2358C0.0918466 39.842 0.13405 42.4437 0.232525 43.4878C0.64987 48.0596 1.71434 51.8317 3.48688 54.9975C4.28406 56.4204 5.2266 57.6328 6.23949 58.5422C6.84909 59.081 7.24299 59.3589 8.26057 59.9398C9.35317 60.5629 9.55481 60.605 11.046 60.5545C13.0342 60.4703 13.6532 60.2682 15.1257 59.2157C16.1573 58.4748 16.781 57.8349 17.5875 56.6646C18.0893 55.9405 19.6602 53.0778 20.0916 52.1179C20.8841 50.3498 21.4421 48.3375 21.7563 46.14C21.8876 45.2138 22.0189 43.934 22.0189 43.5719C22.0189 43.1931 22.1127 43.1257 22.7833 43.0583C23.7633 42.9489 29.0903 42.9657 29.1232 43.0752C29.1654 43.1846 29.1654 50.1393 29.1278 50.3666C29.0997 50.5182 29.0434 50.5435 28.4948 50.5856C28.1619 50.6192 27.8055 50.695 27.707 50.7455C27.5382 50.8466 27.5288 50.8718 27.5147 51.2507C27.4866 52.0001 27.6648 52.2274 28.3025 52.3032C28.7246 52.3537 29.9063 52.1348 30.0423 51.9832C30.0985 51.9243 30.1126 51.1413 30.1313 47.4198C30.1454 44.355 30.1689 42.89 30.2064 42.8058C30.2345 42.7384 30.6378 41.8375 31.102 40.7934C31.5616 39.7494 33.3857 35.6238 35.1489 31.616C38.7409 23.4573 40.6916 19.0791 41.4982 17.3614C42.1171 16.0564 42.1828 15.9974 42.3844 16.5195C42.6236 17.1509 43.3082 19.9379 43.6083 21.5123C43.7818 22.4385 43.8944 23.5247 43.8428 23.8193C43.7959 24.1056 43.6787 24.2908 43.3786 24.5603C42.9378 24.956 42.4454 25.6633 41.7795 26.8589C41.1511 27.9871 40.4759 29.3932 40.0163 30.5383C38.9613 33.1652 38.1266 38.2507 38.211 41.5007C38.3048 45.0707 39.4349 50.3751 40.7666 53.4988C41.2918 54.728 42.4735 56.5467 43.4723 57.6749C44.8135 59.1821 46.4829 60.2261 48.1382 60.5797C49.0151 60.7734 49.3949 60.7734 50.2249 60.5797C51.6786 60.2429 52.7055 59.7209 53.831 58.7442C54.9845 57.7423 55.8286 56.7151 56.5976 55.3679C58.3608 52.2863 59.6128 48.3796 59.9083 45.0454C60.0911 42.9994 60.1709 40.4651 60.1005 39.2021C59.9505 36.7183 59.8801 36.1374 59.5284 34.5376C58.0279 27.7766 54.8767 22.969 51.1768 21.8155C50.3093 21.546 49.6856 21.5123 47.7724 21.6386C46.7642 21.706 45.9155 21.7481 45.8779 21.7228C45.8451 21.6976 45.334 19.5085 44.7431 16.8563C42.4782 6.7021 41.4419 2.31544 41.0949 1.44821C40.9542 1.09458 40.7479 0.968286 40.0773 0.833571C39.2989 0.682017 36.279 0.690436 35.3693 0.850411ZM38.8722 14.0104C39.5474 14.1114 39.8147 14.2209 39.8522 14.3893C39.8663 14.4566 39.8053 14.7345 39.7115 15.0123C39.388 15.9974 37.5545 20.3588 36.204 23.3647C35.8382 24.173 35.1583 25.7222 34.6893 26.7999C33.6905 29.0985 30.2345 36.6678 30.1829 36.6678C30.0751 36.6678 30.0376 31.9528 30.1454 31.8096C30.1736 31.7591 30.3939 31.7002 30.6237 31.6749C31.1395 31.616 31.4537 31.4307 31.6085 31.094C31.7351 30.8245 31.7492 30.6561 31.6788 30.3193C31.5756 29.8226 31.027 29.6374 29.925 29.73L29.1794 29.7805L29.2123 31.8602C29.2263 32.9968 29.2545 34.5629 29.2685 35.3375C29.2967 36.5162 29.2873 36.752 29.2357 36.752C29.1513 36.752 22.7082 14.1199 22.7457 13.9515C22.7645 13.8504 23.8899 13.842 30.5206 13.8757C35.4584 13.9009 38.4876 13.9515 38.8722 14.0104ZM20.6871 16.2753C20.7809 16.3848 21.1701 17.3867 21.4749 18.3044C21.7704 19.1885 25.1982 30.0752 26.1548 33.1736C26.7035 34.9418 27.571 37.8887 27.6742 38.3349C27.8102 38.9327 28.0446 38.8906 24.9169 38.8317C22.6988 38.7896 22.0846 38.7559 22.0423 38.6717C22.0142 38.6127 21.9204 38.0907 21.836 37.5182C21.625 36.0279 21.4187 35.0681 20.9404 33.342C20.237 30.7909 19.3319 28.4839 17.9721 25.7811C17.7095 25.2675 17.6063 24.9981 17.6251 24.8886C17.6673 24.6024 20.5277 16.2079 20.5793 16.2079C20.6121 16.2079 20.659 16.2416 20.6871 16.2753ZM50.0139 25.3433C51.2941 25.4949 51.8661 25.6801 52.5414 26.16C53.9107 27.1367 55.4581 29.4521 56.6164 32.239C56.9446 33.0221 57.1932 33.7883 57.5261 35.0512C58.0419 36.9962 58.1404 37.8297 58.2248 40.8187C58.2717 42.4353 58.267 42.831 58.2014 43.6056C57.9857 46.2242 57.1369 48.9858 55.6223 52.0253C54.3515 54.5597 52.2976 56.4288 50.253 56.9172C46.1781 57.8939 42.0562 53.1872 40.7291 46.0389C40.4337 44.4308 40.3493 43.5719 40.3211 41.8038C40.2977 40.1115 40.3399 39.3789 40.5697 37.5266C40.9917 34.1419 41.6435 32.0791 43.1066 29.5026C44.021 27.8945 44.2742 27.5745 44.6259 27.5745C44.9166 27.5745 45.1558 28.046 45.4043 29.1406C45.5122 29.5953 45.9577 31.5234 46.3938 33.4262C46.8346 35.3206 47.341 37.5434 47.5286 38.3517C48.1944 41.2565 48.6399 42.57 49.0479 42.8142C49.2026 42.8984 49.2448 42.89 49.4418 42.7131C49.7185 42.469 49.8451 42.1238 49.9201 41.4418C50.0279 40.3893 49.831 39.0843 49.1464 36.3731C48.6259 34.3019 47.1862 27.4482 47.0127 26.2021C46.9471 25.7559 46.9799 25.638 47.2144 25.4191C47.5473 25.1076 47.96 25.0907 50.0139 25.3433ZM12.57 26.0169C13.1562 26.16 13.8033 26.4126 14.3144 26.6905C14.6145 26.8589 14.7036 26.943 14.7036 27.0609C14.7036 27.2714 13.9909 29.3342 12.3965 33.6872C10.3895 39.1769 10.0237 40.2798 9.82678 41.3997C9.69079 42.1574 9.72831 42.3258 10.1316 42.6879L10.4129 42.9405L15.1632 42.9657L19.9087 42.991V43.3025C19.9087 43.7403 19.7962 44.9107 19.6743 45.7611C19.4586 47.2766 19.0412 48.8764 18.5395 50.0972C18.1971 50.9308 17.4281 52.2695 16.9076 52.9347C15.1397 55.1911 12.2418 56.5383 10.0706 56.1089C6.4083 55.3848 3.47281 50.8297 2.62406 44.5402C2.44586 43.1931 2.37083 42.048 2.37083 40.4819C2.37083 38.8822 2.41773 38.1076 2.58185 36.9204C3.33683 31.5234 5.89717 27.3977 9.22656 26.1853C10.2957 25.798 11.4587 25.739 12.57 26.0169ZM17.3906 29.9489C18.4222 31.8012 18.8818 32.9631 19.2851 34.7313C19.5852 36.0616 19.8759 38.4865 19.7634 38.739C19.7305 38.8064 19.0881 38.8485 17.6673 38.8906C16.5418 38.9159 15.0413 38.9664 14.3426 38.9916C13.2078 39.0422 13.0624 39.0337 13.0342 38.9159C13.0014 38.7559 16.5231 28.6691 16.6122 28.6691C16.645 28.6691 16.9967 29.25 17.3906 29.9489Z" fill="#fefefe" fill-opacity="0.97"/>
</svg>
